<mxfile host="app.diagrams.net" modified="2021-06-19T11:36:56.533Z" agent="5.0 (X11; Linux x86_64) AppleWebKit/537.36 (KHTML, like Gecko) Chrome/90.0.4430.72 Safari/537.36" etag="5DAqaLE0cbRI1VKyi92d" version="14.8.0" type="github">
  <diagram id="mvpipmfOTZVIbn2RnBfs" name="Page-1">
    <mxGraphModel dx="-2641" dy="-843" grid="1" gridSize="10" guides="1" tooltips="1" connect="1" arrows="1" fold="1" page="1" pageScale="1" pageWidth="827" pageHeight="1169" math="0" shadow="0">
      <root>
        <mxCell id="0" />
        <mxCell id="1" parent="0" />
        <mxCell id="zpBQGHldrdGLaz9oylC_-38" value="&lt;p style=&quot;margin: 0px ; margin-top: 4px ; text-align: center&quot;&gt;&lt;b&gt;Χρήστης&amp;nbsp;&lt;/b&gt;&lt;/p&gt;&lt;hr size=&quot;1&quot;&gt;&lt;p style=&quot;margin: 0px ; margin-left: 4px&quot;&gt;user_ID&lt;br&gt;&lt;/p&gt;&lt;p style=&quot;margin: 0px ; margin-left: 4px&quot;&gt;email&lt;/p&gt;&lt;p style=&quot;margin: 0px ; margin-left: 4px&quot;&gt;password:&lt;/p&gt;&lt;p style=&quot;margin: 0px ; margin-left: 4px&quot;&gt;fullName&lt;/p&gt;&lt;p style=&quot;margin: 0px ; margin-left: 4px&quot;&gt;myEvaluatiionCritique_list&lt;br&gt;&lt;/p&gt;&lt;p style=&quot;margin: 0px ; margin-left: 4px&quot;&gt;myFavourites_list&lt;/p&gt;&lt;p style=&quot;margin: 0px ; margin-left: 4px&quot;&gt;mySeeLater_list&lt;/p&gt;&lt;hr size=&quot;1&quot;&gt;&lt;p style=&quot;margin: 0px 0px 0px 4px&quot;&gt;&lt;span&gt;signIn()&lt;/span&gt;&lt;br&gt;&lt;/p&gt;&lt;p style=&quot;margin: 0px 0px 0px 4px&quot;&gt;&lt;span&gt;login()&lt;/span&gt;&lt;/p&gt;&lt;p style=&quot;margin: 0px 0px 0px 4px&quot;&gt;search()&lt;span&gt;&lt;br&gt;&lt;/span&gt;&lt;/p&gt;&lt;p style=&quot;margin: 0px 0px 0px 4px&quot;&gt;doCritique()&lt;/p&gt;&lt;p style=&quot;margin: 0px 0px 0px 4px&quot;&gt;doEvaluation()&lt;/p&gt;&lt;p style=&quot;margin: 0px 0px 0px 4px&quot;&gt;seeCritiques_Evaluations()&lt;/p&gt;&lt;p style=&quot;margin: 0px 0px 0px 4px&quot;&gt;seeMyEvaluationsCritique()&lt;/p&gt;&lt;p style=&quot;margin: 0px 0px 0px 4px&quot;&gt;addToFavourites()&lt;/p&gt;&lt;p style=&quot;margin: 0px 0px 0px 4px&quot;&gt;&lt;br&gt;&lt;/p&gt;" style="verticalAlign=top;align=left;overflow=fill;fontSize=12;fontFamily=Helvetica;html=1;fillColor=#dae8fc;strokeColor=#6c8ebf;labelBackgroundColor=none;" vertex="1" parent="1">
          <mxGeometry x="5915.75" y="2834" width="170" height="256" as="geometry" />
        </mxCell>
        <mxCell id="zpBQGHldrdGLaz9oylC_-39" value="&lt;p style=&quot;margin: 0px ; margin-top: 4px ; text-align: center&quot;&gt;&lt;b&gt;Βαθμολογία&lt;/b&gt;&lt;/p&gt;&lt;hr size=&quot;1&quot;&gt;&lt;p style=&quot;margin: 0px ; margin-left: 4px&quot;&gt;&lt;span&gt;name&lt;/span&gt;&lt;br&gt;&lt;/p&gt;&lt;p style=&quot;margin: 0px ; margin-left: 4px&quot;&gt;&lt;span&gt;date&lt;/span&gt;&lt;/p&gt;&lt;p style=&quot;margin: 0px ; margin-left: 4px&quot;&gt;&lt;span&gt;critique&lt;/span&gt;&lt;/p&gt;&lt;p style=&quot;margin: 0px ; margin-left: 4px&quot;&gt;&lt;span&gt;rating&lt;/span&gt;&lt;/p&gt;&lt;hr size=&quot;1&quot;&gt;&lt;p style=&quot;margin: 0px ; margin-left: 4px&quot;&gt;otherEvaluations()&lt;/p&gt;&lt;p style=&quot;margin: 0px ; margin-left: 4px&quot;&gt;&lt;br&gt;&lt;/p&gt;&lt;p style=&quot;margin: 0px ; margin-left: 4px&quot;&gt;&lt;br&gt;&lt;/p&gt;" style="verticalAlign=top;align=left;overflow=fill;fontSize=12;fontFamily=Helvetica;html=1;fillColor=#dae8fc;strokeColor=#6c8ebf;" vertex="1" parent="1">
          <mxGeometry x="6270" y="2860.4900000000002" width="130" height="120" as="geometry" />
        </mxCell>
        <mxCell id="zpBQGHldrdGLaz9oylC_-40" value="&lt;p style=&quot;margin: 0px ; margin-top: 4px ; text-align: center&quot;&gt;&lt;b&gt;&amp;nbsp;Επόμενη σειρά/ταινια&amp;nbsp;&lt;/b&gt;&lt;/p&gt;&lt;hr size=&quot;1&quot;&gt;&lt;p style=&quot;margin: 0px ; margin-left: 4px&quot;&gt;&lt;span&gt;favourites_list&lt;/span&gt;&lt;br&gt;&lt;/p&gt;&lt;hr size=&quot;1&quot;&gt;&lt;p style=&quot;margin: 0px ; margin-left: 4px&quot;&gt;sendMailTwoWeeksBefore()&lt;/p&gt;&lt;p style=&quot;margin: 0px ; margin-left: 4px&quot;&gt;isActor()&lt;/p&gt;&lt;p style=&quot;margin: 0px ; margin-left: 4px&quot;&gt;isDirector()&lt;/p&gt;&lt;p style=&quot;margin: 0px ; margin-left: 4px&quot;&gt;isEmptySpace_on favourites()&lt;/p&gt;&lt;p style=&quot;margin: 0px ; margin-left: 4px&quot;&gt;addThisActor()&lt;/p&gt;&lt;p style=&quot;margin: 0px ; margin-left: 4px&quot;&gt;addThisDirector()&lt;/p&gt;" style="verticalAlign=top;align=left;overflow=fill;fontSize=12;fontFamily=Helvetica;html=1;fillColor=#dae8fc;strokeColor=#6c8ebf;labelBackgroundColor=none;" vertex="1" parent="1">
          <mxGeometry x="5940" y="2541" width="170" height="150" as="geometry" />
        </mxCell>
        <mxCell id="zpBQGHldrdGLaz9oylC_-41" value="&lt;p style=&quot;margin: 4px 0px 0px ; text-align: center&quot;&gt;&lt;b&gt;&lt;font style=&quot;font-size: 12px&quot;&gt;Σειρά&amp;nbsp;&lt;/font&gt;&lt;/b&gt;&lt;/p&gt;&lt;hr size=&quot;1&quot;&gt;&lt;p style=&quot;margin: 0px 0px 0px 4px&quot;&gt;&lt;font style=&quot;font-size: 12px&quot;&gt;serie_ID&lt;/font&gt;&lt;/p&gt;&lt;p style=&quot;margin: 0px 0px 0px 4px&quot;&gt;&lt;font style=&quot;font-size: 12px&quot;&gt;last_episode&lt;/font&gt;&lt;/p&gt;&lt;p style=&quot;margin: 0px 0px 0px 4px&quot;&gt;&lt;font style=&quot;font-size: 12px&quot;&gt;seasons&lt;/font&gt;&lt;/p&gt;&lt;p style=&quot;margin: 0px 0px 0px 4px&quot;&gt;&lt;font style=&quot;font-size: 12px&quot;&gt;episodes_per_season&lt;/font&gt;&lt;/p&gt;&lt;hr size=&quot;1&quot;&gt;&lt;font style=&quot;font-size: 12px&quot;&gt;episodes_of_this_season()&lt;/font&gt;&lt;br&gt;&lt;p style=&quot;margin: 0px ; margin-left: 4px&quot;&gt;&lt;/p&gt;" style="verticalAlign=top;align=left;overflow=fill;fontSize=12;fontFamily=Helvetica;html=1;fillColor=#dae8fc;strokeColor=#6c8ebf;labelBackgroundColor=none;" vertex="1" parent="1">
          <mxGeometry x="6845" y="2991.27" width="145" height="120" as="geometry" />
        </mxCell>
        <mxCell id="zpBQGHldrdGLaz9oylC_-42" value="&lt;p style=&quot;margin: 0px ; margin-top: 4px ; text-align: center&quot;&gt;&lt;b&gt;Σκηνοθέτης&lt;/b&gt;&lt;/p&gt;&lt;hr size=&quot;1&quot;&gt;&lt;p style=&quot;margin: 0px 0px 0px 4px&quot;&gt;&lt;span&gt;Director_ID&lt;/span&gt;&lt;/p&gt;&lt;p style=&quot;margin: 0px ; margin-left: 4px&quot;&gt;&lt;br&gt;&lt;/p&gt;&lt;p style=&quot;margin: 0px ; margin-left: 4px&quot;&gt;&lt;br&gt;&lt;/p&gt;" style="verticalAlign=top;align=left;overflow=fill;fontSize=12;fontFamily=Helvetica;html=1;fillColor=#dae8fc;strokeColor=#6c8ebf;labelBackgroundColor=none;" vertex="1" parent="1">
          <mxGeometry x="6559.25" y="2745.84" width="77.5" height="50" as="geometry" />
        </mxCell>
        <mxCell id="zpBQGHldrdGLaz9oylC_-43" value="&lt;p style=&quot;margin: 0px ; margin-top: 4px ; text-align: center&quot;&gt;&lt;b&gt;Ηθοποιός&amp;nbsp;&lt;/b&gt;&lt;/p&gt;&lt;hr size=&quot;1&quot;&gt;&lt;p style=&quot;margin: 0px 0px 0px 4px&quot;&gt;actor_ID&lt;/p&gt;&lt;p style=&quot;margin: 0px ; margin-left: 4px&quot;&gt;&lt;br&gt;&lt;/p&gt;&lt;p style=&quot;margin: 0px ; margin-left: 4px&quot;&gt;&lt;br&gt;&lt;/p&gt;" style="verticalAlign=top;align=left;overflow=fill;fontSize=12;fontFamily=Helvetica;html=1;fillColor=#dae8fc;strokeColor=#6c8ebf;labelBackgroundColor=none;" vertex="1" parent="1">
          <mxGeometry x="6446.75" y="2745.84" width="65" height="50" as="geometry" />
        </mxCell>
        <mxCell id="zpBQGHldrdGLaz9oylC_-44" value="&lt;p style=&quot;margin: 0px ; margin-top: 4px ; text-align: center&quot;&gt;&lt;b&gt;Ταινία&amp;nbsp;&lt;/b&gt;&lt;/p&gt;&lt;hr size=&quot;1&quot;&gt;&lt;p style=&quot;margin: 0px 0px 0px 4px&quot;&gt;movie_ID&lt;/p&gt;&lt;p style=&quot;margin: 0px 0px 0px 4px&quot;&gt;title&lt;br&gt;&lt;/p&gt;&lt;p style=&quot;margin: 0px 0px 0px 4px&quot;&gt;premier:&lt;/p&gt;&lt;p style=&quot;margin: 0px 0px 0px 4px&quot;&gt;storyline&lt;/p&gt;&lt;p style=&quot;margin: 0px 0px 0px 4px&quot;&gt;director_name&lt;/p&gt;&lt;p style=&quot;margin: 0px 0px 0px 4px&quot;&gt;actor_name&lt;/p&gt;&lt;p style=&quot;margin: 0px 0px 0px 4px&quot;&gt;genre&lt;/p&gt;&lt;p style=&quot;margin: 0px 0px 0px 4px&quot;&gt;avg_rating&lt;/p&gt;&lt;hr size=&quot;1&quot;&gt;alreadyExist()&lt;br&gt;nothingFound()&lt;br&gt;&lt;br&gt;&lt;p style=&quot;margin: 0px ; margin-left: 4px&quot;&gt;&lt;/p&gt;" style="verticalAlign=top;align=left;overflow=fill;fontSize=12;fontFamily=Helvetica;html=1;fillColor=#dae8fc;strokeColor=#6c8ebf;labelBackgroundColor=none;" vertex="1" parent="1">
          <mxGeometry x="6860.75" y="2716.73" width="113.5" height="196.76" as="geometry" />
        </mxCell>
        <mxCell id="zpBQGHldrdGLaz9oylC_-45" value="&lt;p style=&quot;margin: 0px ; margin-top: 4px ; text-align: center&quot;&gt;&lt;b&gt;Διαχειριστής&amp;nbsp;&lt;/b&gt;&lt;/p&gt;&lt;hr size=&quot;1&quot;&gt;administrator_ID&lt;br&gt;&lt;span&gt;email&lt;br&gt;&lt;/span&gt;&lt;span&gt;password&lt;br&gt;&lt;/span&gt;&lt;span&gt;fullName&lt;/span&gt;&lt;span&gt;&lt;br&gt;&lt;/span&gt;&lt;hr size=&quot;1&quot;&gt;login()&lt;span&gt;&lt;br&gt;create()&lt;br&gt;update()&lt;br&gt;&lt;/span&gt;&lt;span&gt;seeReferences()&lt;/span&gt;&lt;span&gt;&lt;br&gt;&lt;/span&gt;" style="verticalAlign=top;align=left;overflow=fill;fontSize=12;fontFamily=Helvetica;html=1;fillColor=#dae8fc;strokeColor=#6c8ebf;labelBackgroundColor=none;" vertex="1" parent="1">
          <mxGeometry x="6616.75" y="3044" width="130" height="190" as="geometry" />
        </mxCell>
        <mxCell id="zpBQGHldrdGLaz9oylC_-46" value="&lt;p style=&quot;margin: 0px ; margin-top: 4px ; text-align: center&quot;&gt;&lt;b&gt;Επαγγελματίες&lt;/b&gt;&lt;/p&gt;&lt;hr size=&quot;1&quot;&gt;&lt;p style=&quot;margin: 0px 0px 0px 4px&quot;&gt;&lt;span&gt;fullName&lt;/span&gt;&lt;br&gt;&lt;/p&gt;&lt;p style=&quot;margin: 0px 0px 0px 4px&quot;&gt;birthday&lt;/p&gt;&lt;p style=&quot;margin: 0px 0px 0px 4px&quot;&gt;country&lt;/p&gt;&lt;p style=&quot;margin: 0px 0px 0px 4px&quot;&gt;website&lt;/p&gt;&lt;p style=&quot;margin: 0px 0px 0px 4px&quot;&gt;filmography&lt;/p&gt;&lt;hr size=&quot;1&quot;&gt;&lt;p style=&quot;margin: 0px ; margin-left: 4px&quot;&gt;&lt;span&gt;nothingFound()&lt;/span&gt;&lt;br&gt;&lt;/p&gt;&lt;p style=&quot;margin: 0px ; margin-left: 4px&quot;&gt;check_if_actor()&lt;/p&gt;&lt;p style=&quot;margin: 0px ; margin-left: 4px&quot;&gt;check_if_director()&lt;/p&gt;" style="verticalAlign=top;align=left;overflow=fill;fontSize=12;fontFamily=Helvetica;html=1;fillColor=#dae8fc;strokeColor=#6c8ebf;labelBackgroundColor=none;" vertex="1" parent="1">
          <mxGeometry x="6468.75" y="2494" width="130" height="168.59" as="geometry" />
        </mxCell>
        <mxCell id="zpBQGHldrdGLaz9oylC_-47" value="" style="endArrow=block;endSize=16;endFill=0;html=1;exitX=0.5;exitY=0;exitDx=0;exitDy=0;entryX=0.25;entryY=1;entryDx=0;entryDy=0;labelBackgroundColor=none;" edge="1" parent="1" source="zpBQGHldrdGLaz9oylC_-43" target="zpBQGHldrdGLaz9oylC_-46">
          <mxGeometry x="-0.0416" width="160" relative="1" as="geometry">
            <mxPoint x="6592.162" y="2976.53532" as="sourcePoint" />
            <mxPoint x="6421.25" y="2662.585" as="targetPoint" />
            <Array as="points">
              <mxPoint x="6478.75" y="2715.84" />
              <mxPoint x="6501.75" y="2715.84" />
            </Array>
            <mxPoint as="offset" />
          </mxGeometry>
        </mxCell>
        <mxCell id="zpBQGHldrdGLaz9oylC_-48" value="" style="endArrow=block;endSize=16;endFill=0;html=1;exitX=0.5;exitY=0;exitDx=0;exitDy=0;entryX=0.75;entryY=1;entryDx=0;entryDy=0;labelBackgroundColor=none;" edge="1" parent="1" source="zpBQGHldrdGLaz9oylC_-42" target="zpBQGHldrdGLaz9oylC_-46">
          <mxGeometry x="-0.1014" width="160" relative="1" as="geometry">
            <mxPoint x="6551.25" y="2769.0900000000006" as="sourcePoint" />
            <mxPoint x="6528.75" y="2665.84" as="targetPoint" />
            <Array as="points">
              <mxPoint x="6598.75" y="2715.84" />
              <mxPoint x="6566.75" y="2715.84" />
            </Array>
            <mxPoint as="offset" />
          </mxGeometry>
        </mxCell>
        <mxCell id="zpBQGHldrdGLaz9oylC_-49" value="" style="endArrow=block;endSize=16;endFill=0;html=1;entryX=0.5;entryY=1;entryDx=0;entryDy=0;exitX=0.5;exitY=0;exitDx=0;exitDy=0;labelBackgroundColor=none;" edge="1" parent="1" source="zpBQGHldrdGLaz9oylC_-41" target="zpBQGHldrdGLaz9oylC_-44">
          <mxGeometry x="-0.1014" width="160" relative="1" as="geometry">
            <mxPoint x="6764.5" y="3071.27" as="sourcePoint" />
            <mxPoint x="6914.5" y="2931.27" as="targetPoint" />
            <Array as="points">
              <mxPoint x="6917.5" y="2951.27" />
            </Array>
            <mxPoint as="offset" />
          </mxGeometry>
        </mxCell>
        <mxCell id="zpBQGHldrdGLaz9oylC_-50" value="" style="endArrow=open;html=1;endSize=12;startArrow=diamondThin;startSize=14;startFill=0;edgeStyle=orthogonalEdgeStyle;align=left;verticalAlign=bottom;entryX=0.75;entryY=0;entryDx=0;entryDy=0;exitX=0;exitY=0.5;exitDx=0;exitDy=0;labelBackgroundColor=none;" edge="1" parent="1" source="zpBQGHldrdGLaz9oylC_-46" target="zpBQGHldrdGLaz9oylC_-38">
          <mxGeometry x="-1" y="3" relative="1" as="geometry">
            <mxPoint x="6386.75" y="2594" as="sourcePoint" />
            <mxPoint x="6118.75" y="2735.0125" as="targetPoint" />
            <Array as="points">
              <mxPoint x="6246.75" y="2578" />
              <mxPoint x="6246.75" y="2734" />
              <mxPoint x="6043.75" y="2734" />
            </Array>
          </mxGeometry>
        </mxCell>
        <mxCell id="zpBQGHldrdGLaz9oylC_-51" value="Αναζητά ηθοποιό/σκηνοθέτη" style="edgeLabel;html=1;align=center;verticalAlign=middle;resizable=0;points=[];labelBackgroundColor=none;" vertex="1" connectable="0" parent="zpBQGHldrdGLaz9oylC_-50">
          <mxGeometry x="0.2618" y="4" relative="1" as="geometry">
            <mxPoint x="-46" y="7" as="offset" />
          </mxGeometry>
        </mxCell>
        <mxCell id="zpBQGHldrdGLaz9oylC_-52" value="" style="endArrow=diamondThin;endFill=1;endSize=24;html=1;entryX=0.5;entryY=0;entryDx=0;entryDy=0;exitX=1;exitY=0.5;exitDx=0;exitDy=0;labelBackgroundColor=none;" edge="1" parent="1" source="zpBQGHldrdGLaz9oylC_-46" target="zpBQGHldrdGLaz9oylC_-45">
          <mxGeometry width="160" relative="1" as="geometry">
            <mxPoint x="6596.75" y="2594" as="sourcePoint" />
            <mxPoint x="6656.75" y="2834" as="targetPoint" />
            <Array as="points">
              <mxPoint x="6676.75" y="2578" />
            </Array>
          </mxGeometry>
        </mxCell>
        <mxCell id="zpBQGHldrdGLaz9oylC_-53" value="Προσθέτει/ανανεώνει&lt;br&gt;σκηνοθέτη/ηθοποιό" style="edgeLabel;html=1;align=center;verticalAlign=middle;resizable=0;points=[];labelBackgroundColor=none;" vertex="1" connectable="0" parent="zpBQGHldrdGLaz9oylC_-52">
          <mxGeometry x="0.0446" y="-2" relative="1" as="geometry">
            <mxPoint y="-154" as="offset" />
          </mxGeometry>
        </mxCell>
        <mxCell id="zpBQGHldrdGLaz9oylC_-54" value="" style="endArrow=diamondThin;endFill=1;endSize=24;html=1;entryX=0.75;entryY=0;entryDx=0;entryDy=0;exitX=0;exitY=0.5;exitDx=0;exitDy=0;labelBackgroundColor=none;" edge="1" parent="1" source="zpBQGHldrdGLaz9oylC_-44" target="zpBQGHldrdGLaz9oylC_-45">
          <mxGeometry width="160" relative="1" as="geometry">
            <mxPoint x="6646.75" y="2494" as="sourcePoint" />
            <mxPoint x="6731.75" y="2944" as="targetPoint" />
            <Array as="points">
              <mxPoint x="6714.75" y="2814" />
            </Array>
          </mxGeometry>
        </mxCell>
        <mxCell id="zpBQGHldrdGLaz9oylC_-55" value="Προσθέτει /ανανεώνει&lt;br&gt;ταινία/σειρα" style="edgeLabel;html=1;align=center;verticalAlign=middle;resizable=0;points=[];labelBackgroundColor=none;" vertex="1" connectable="0" parent="zpBQGHldrdGLaz9oylC_-54">
          <mxGeometry x="0.2393" y="4" relative="1" as="geometry">
            <mxPoint x="62" y="-91" as="offset" />
          </mxGeometry>
        </mxCell>
        <mxCell id="zpBQGHldrdGLaz9oylC_-56" value="" style="endArrow=open;html=1;endSize=12;startArrow=diamondThin;startSize=14;startFill=0;edgeStyle=orthogonalEdgeStyle;align=left;verticalAlign=bottom;exitX=0.5;exitY=0;exitDx=0;exitDy=0;labelBackgroundColor=none;" edge="1" parent="1" source="zpBQGHldrdGLaz9oylC_-44">
          <mxGeometry x="-1" y="3" relative="1" as="geometry">
            <mxPoint x="6478.75" y="2588.295" as="sourcePoint" />
            <mxPoint x="5916" y="2898" as="targetPoint" />
            <Array as="points">
              <mxPoint x="6918" y="2474" />
              <mxPoint x="5867" y="2474" />
              <mxPoint x="5867" y="2896" />
              <mxPoint x="5910" y="2896" />
              <mxPoint x="5910" y="2898" />
            </Array>
          </mxGeometry>
        </mxCell>
        <mxCell id="zpBQGHldrdGLaz9oylC_-57" value="Αναζητά Σειρά/Ταινία" style="edgeLabel;html=1;align=center;verticalAlign=middle;resizable=0;points=[];labelBackgroundColor=none;" vertex="1" connectable="0" parent="zpBQGHldrdGLaz9oylC_-56">
          <mxGeometry x="0.2618" y="4" relative="1" as="geometry">
            <mxPoint x="-41" y="12" as="offset" />
          </mxGeometry>
        </mxCell>
        <mxCell id="zpBQGHldrdGLaz9oylC_-58" value="Προσθέτει&lt;br&gt;στα αγαπημένα" style="edgeLabel;html=1;align=center;verticalAlign=middle;resizable=0;points=[];labelBackgroundColor=none;" connectable="0" vertex="1" parent="1">
          <mxGeometry x="5970" y="2751" as="geometry" />
        </mxCell>
        <mxCell id="zpBQGHldrdGLaz9oylC_-59" value="" style="endArrow=diamondThin;endFill=1;endSize=24;html=1;entryX=0.5;entryY=0;entryDx=0;entryDy=0;labelBackgroundColor=none;" edge="1" parent="1">
          <mxGeometry width="160" relative="1" as="geometry">
            <mxPoint x="5965" y="2693" as="sourcePoint" />
            <mxPoint x="5965" y="2834.005" as="targetPoint" />
            <Array as="points" />
          </mxGeometry>
        </mxCell>
        <mxCell id="zpBQGHldrdGLaz9oylC_-60" value="" style="endArrow=open;html=1;endSize=12;startArrow=diamondThin;startSize=14;startFill=0;edgeStyle=orthogonalEdgeStyle;align=left;verticalAlign=bottom;exitX=1;exitY=0.25;exitDx=0;exitDy=0;entryX=0;entryY=0.5;entryDx=0;entryDy=0;" edge="1" parent="1" source="zpBQGHldrdGLaz9oylC_-38" target="zpBQGHldrdGLaz9oylC_-39">
          <mxGeometry x="-1" y="3" relative="1" as="geometry">
            <mxPoint x="6130" y="2940" as="sourcePoint" />
            <mxPoint x="6260" y="2920" as="targetPoint" />
            <Array as="points">
              <mxPoint x="6180" y="2898" />
              <mxPoint x="6180" y="2921" />
            </Array>
          </mxGeometry>
        </mxCell>
        <mxCell id="zpBQGHldrdGLaz9oylC_-61" value="" style="endArrow=open;html=1;endSize=12;startArrow=diamondThin;startSize=14;startFill=0;edgeStyle=orthogonalEdgeStyle;align=left;verticalAlign=bottom;exitX=1;exitY=0.25;exitDx=0;exitDy=0;entryX=0;entryY=0.75;entryDx=0;entryDy=0;" edge="1" parent="1" source="zpBQGHldrdGLaz9oylC_-39" target="zpBQGHldrdGLaz9oylC_-44">
          <mxGeometry x="-1" y="3" relative="1" as="geometry">
            <mxPoint x="6440" y="2913.49" as="sourcePoint" />
            <mxPoint x="6624.25" y="2935.98" as="targetPoint" />
            <Array as="points">
              <mxPoint x="6534" y="2890" />
              <mxPoint x="6534" y="2864" />
            </Array>
          </mxGeometry>
        </mxCell>
      </root>
    </mxGraphModel>
  </diagram>
</mxfile>
